<svg xmlns="http://www.w3.org/2000/svg" width="33.998" height="33.998" viewBox="0 0 33.998 33.998">
  <path id="Fill_1" data-name="Fill 1" d="M16.966,34h-.014a1.148,1.148,0,0,1-.574-.1l-.059-.026a3.118,3.118,0,0,1-.324-.143c-.184-.092-.388-.2-.682-.376-.436-.252-1-.593-1.711-1.043-.322-.2-.644-.406-.944-.6l-.721-.455c-.247-.154-.442-.273-.578-.355-.049-.029-.088-.051-.131-.072l.045.014.041.012a.756.756,0,0,0-.085-.036.891.891,0,0,0-.086-.035.613.613,0,0,0,.082.044c-.037-.008-.077-.02-.123-.034l-.025-.008c-.115-.029-.353-.089-.659-.16l-.376-.087c-.468-.108-1-.23-1.539-.359-.84-.2-1.459-.353-1.946-.486-.3-.08-.538-.15-.747-.221-.115-.04-.216-.077-.331-.128-.021-.009-.042-.017-.063-.025a1.147,1.147,0,0,1-.472-.335,1.173,1.173,0,0,1-.33-.472c-.008-.022-.016-.043-.026-.065-.052-.117-.088-.22-.126-.333-.071-.212-.139-.453-.219-.749-.162-.606-.338-1.359-.473-1.947-.082-.358-.163-.716-.238-1.052-.071-.314-.137-.608-.2-.866L3.3,23.328c-.044-.192-.082-.357-.116-.484a1.02,1.02,0,0,0-.043-.15l.014.027a.449.449,0,0,0,.031.058.542.542,0,0,0-.033-.087.717.717,0,0,0-.036-.084.446.446,0,0,0,.019.068l.005.018-.063-.116-.008-.015c-.085-.145-.206-.346-.352-.58s-.308-.494-.483-.775-.37-.592-.56-.9C1.25,19.633.9,19.056.638,18.6c-.159-.277-.278-.5-.373-.687C.213,17.8.171,17.7.124,17.585.116,17.563.106,17.542.1,17.52a1.15,1.15,0,0,1-.1-.567,1.148,1.148,0,0,1,.1-.574c.009-.02.018-.039.026-.059A2.916,2.916,0,0,1,.271,16c.092-.183.2-.387.376-.683.25-.433.581-.977,1.042-1.711.187-.3.374-.592.55-.871l0-.006c.181-.285.351-.554.5-.788s.273-.441.356-.578c.029-.049.051-.088.072-.131l-.013.042a.337.337,0,0,0-.013.045,3.349,3.349,0,0,0,.071-.172.668.668,0,0,0-.044.082c.008-.038.02-.078.035-.124l.007-.023c.044-.174.1-.408.159-.659l.1-.412c.106-.459.227-.978.351-1.5.195-.824.353-1.46.485-1.946.085-.318.154-.548.222-.747.04-.115.077-.216.128-.331.009-.021.017-.041.025-.063a1.149,1.149,0,0,1,.334-.472,1.181,1.181,0,0,1,.472-.33c.022-.008.043-.016.065-.026.116-.051.215-.086.333-.126.195-.064.426-.132.749-.218.6-.162,1.358-.339,1.948-.474l1.05-.238.868-.2.193-.045c.185-.043.345-.08.467-.112a1.034,1.034,0,0,0,.151-.043l-.017.008a.526.526,0,0,0-.068.037.7.7,0,0,0,.087-.033.756.756,0,0,0,.085-.036.522.522,0,0,0-.055.015l-.031.009.116-.063.016-.008c.145-.085.346-.207.58-.352l.656-.41c.32-.2.667-.417,1.014-.633C14.372,1.249,14.949.9,15.4.64c.277-.159.5-.278.687-.373.107-.053.207-.095.324-.141.022-.008.043-.018.065-.028a1.13,1.13,0,0,1,.553-.1h.014a1.137,1.137,0,0,1,.574.1l.059.026A2.912,2.912,0,0,1,18,.271c.183.091.387.2.683.376.436.252,1,.593,1.711,1.042l.839.531c.3.19.581.368.826.522s.441.273.578.355a1.4,1.4,0,0,0,.131.072l-.042-.013-.045-.013a.75.75,0,0,0,.085.037.814.814,0,0,0,.085.035.577.577,0,0,0-.083-.046c.037.008.073.02.115.032l.035.011c.174.044.408.1.659.159l.412.1c.459.106.978.227,1.5.351.843.2,1.461.354,1.946.485.321.087.552.155.747.222.115.04.216.077.331.128.021.009.042.017.064.025a1.163,1.163,0,0,1,.471.334,1.181,1.181,0,0,1,.33.472c.008.022.016.043.026.065.051.116.086.215.126.333.064.195.132.426.218.749.156.586.328,1.313.474,1.948.082.358.162.715.238,1.05.071.315.137.609.2.868l.047.2c.042.183.078.337.11.457a1.033,1.033,0,0,0,.043.151l-.009-.017a.561.561,0,0,0-.037-.068.516.516,0,0,0,.033.087.78.78,0,0,0,.036.085.352.352,0,0,0-.015-.055l-.009-.031.063.116.008.016c.085.145.207.346.352.58l.41.656c.2.32.417.667.633,1.014.424.684.772,1.261,1.033,1.716.159.277.278.5.373.687.05.1.091.2.141.324.008.022.018.042.027.063a1.147,1.147,0,0,1,.1.568,1.148,1.148,0,0,1-.1.574c-.009.02-.018.039-.026.059a3.175,3.175,0,0,1-.143.323c-.092.183-.2.387-.376.683-.26.447-.611,1.023-1.043,1.71-.192.305-.384.61-.566.9s-.342.54-.485.769-.269.435-.356.577l0,.006c-.026.046-.046.081-.065.12a.638.638,0,0,0,.025-.081.468.468,0,0,0-.038.085.8.8,0,0,0-.035.087.666.666,0,0,0,.044-.082c-.007.034-.018.071-.031.113l-.011.035c-.029.115-.089.354-.16.659l-.086.372c-.109.47-.232,1-.359,1.543-.2.847-.355,1.465-.486,1.946-.08.3-.151.538-.221.747-.04.115-.077.216-.128.331-.009.021-.017.042-.025.063a1.156,1.156,0,0,1-.335.47,1.178,1.178,0,0,1-.472.331c-.022.008-.043.016-.064.025-.118.052-.22.088-.333.126-.2.065-.426.132-.749.218-.589.157-1.315.328-1.948.474l-1.068.242-.008,0-.841.191-.215.049c-.176.04-.328.075-.446.106a1.138,1.138,0,0,0-.15.044l.032-.017a.42.42,0,0,0,.053-.029.805.805,0,0,0-.087.034.685.685,0,0,0-.084.036.646.646,0,0,0,.068-.019l.018-.005-.116.063-.015.008c-.168.1-.374.226-.58.354l-.71.443c-.307.192-.633.4-.961.6-.691.428-1.268.776-1.715,1.033-.277.159-.5.278-.687.373-.1.05-.2.091-.324.141-.022.008-.043.018-.065.028A1.133,1.133,0,0,1,16.966,34Zm.07-31.024-.1.057L16.81,3.1c-.394.226-.945.557-1.635.985-.414.256-.83.516-1.207.751l-.46.287c-.2.125-.434.269-.621.38-.042.025-.076.047-.107.067a2.018,2.018,0,0,1-.4.2,2.048,2.048,0,0,1-.417.134c-.038.008-.079.017-.131.03l-.113.027c-.175.042-.373.09-.6.14l-.771.175c-.366.083-.757.171-1.145.26-.624.143-1.333.308-1.854.447l-.151.045-.1.029c-.009.03-.017.055-.026.08-.016.049-.032.1-.049.166-.119.435-.273,1.058-.459,1.851-.1.411-.192.824-.281,1.208-.058.252-.113.49-.164.706-.061.259-.12.5-.171.707-.012.049-.021.088-.029.125a1.986,1.986,0,0,1-.137.423,1.971,1.971,0,0,1-.2.4c-.02.031-.042.064-.067.106-.1.159-.222.362-.383.619l-.393.622,0,.007c-.208.328-.431.681-.651,1.033-.39.62-.742,1.2-.994,1.629-.055.094-.082.143-.126.226l.05.091.075.135c.219.384.541.919.985,1.635.256.414.516.83.751,1.207l.287.46c.125.2.269.434.38.621.025.043.047.076.067.107a1.991,1.991,0,0,1,.2.4,2.049,2.049,0,0,1,.134.418c.008.038.017.079.03.13l.027.112c.042.175.09.373.141.6.056.245.118.518.183.806.08.356.165.734.252,1.109.134.585.306,1.324.447,1.853.028.1.044.152.068.228l.006.02.075.025c.05.017.1.033.172.051.433.117,1.039.267,1.851.459.4.095.807.188,1.184.275l.008,0,.721.167c.272.065.513.122.707.172.049.012.088.021.125.029a1.975,1.975,0,0,1,.422.137,2.008,2.008,0,0,1,.4.2c.032.021.065.042.107.068.159.1.362.222.619.383l.5.319.023.015c.356.225.745.472,1.133.715.62.39,1.2.742,1.629.994.094.055.143.082.226.126l.109-.06.117-.064c.4-.228.964-.569,1.635-.985.413-.256.829-.515,1.2-.75l.462-.288c.276-.172.468-.289.621-.38.043-.025.076-.047.107-.067a1.991,1.991,0,0,1,.4-.2,2.053,2.053,0,0,1,.417-.134c.038-.008.079-.017.13-.03l.138-.033c.169-.041.359-.086.572-.134l.8-.181h.006c.356-.08.734-.166,1.111-.252.585-.134,1.324-.306,1.853-.447l.162-.048.087-.026c.009-.031.018-.057.027-.084.016-.049.031-.094.049-.163.117-.433.268-1.039.459-1.851.095-.4.188-.807.275-1.184l0-.018c.058-.253.114-.493.165-.711.061-.259.12-.5.171-.707.013-.051.022-.091.03-.129a1.978,1.978,0,0,1,.136-.419,2.036,2.036,0,0,1,.2-.4c.02-.031.042-.065.068-.108.1-.164.221-.358.384-.619.128-.2.27-.429.42-.666l0,0c.2-.317.414-.655.625-.991.4-.639.754-1.218.994-1.629.056-.095.082-.143.126-.226-.044-.083-.071-.133-.124-.226-.223-.391-.554-.941-.984-1.635-.212-.341-.426-.684-.626-1l-.413-.662c-.125-.2-.269-.434-.38-.621-.025-.043-.047-.076-.067-.107a1.991,1.991,0,0,1-.2-.4,2.057,2.057,0,0,1-.135-.422c-.008-.037-.016-.077-.029-.126l-.027-.112c-.042-.175-.09-.373-.141-.6-.061-.267-.129-.567-.2-.883-.075-.333-.154-.684-.234-1.032-.152-.66-.312-1.347-.448-1.853-.021-.075-.035-.123-.051-.175l-.022-.074-.075-.024c-.051-.017-.1-.033-.172-.051-.433-.117-1.039-.267-1.851-.459-.4-.095-.807-.188-1.184-.275l-.729-.169c-.247-.058-.5-.12-.708-.172-.048-.012-.088-.021-.124-.028a1.993,1.993,0,0,1-.423-.137,1.97,1.97,0,0,1-.4-.2c-.031-.02-.064-.042-.106-.067-.179-.108-.393-.241-.619-.383L19.9,4.729l-.008-.005-1-.628c-.637-.4-1.216-.753-1.63-.994C17.17,3.049,17.121,3.022,17.036,2.976ZM15.371,22.553a1.418,1.418,0,0,1-.919-.339l-4.044-3.451a1.4,1.4,0,0,1-.49-.965,1.416,1.416,0,0,1,2.331-1.19l2.986,2.548,6.907-7.75a1.432,1.432,0,0,1,.977-.472H23.2a1.417,1.417,0,0,1,1.055,2.359l-7.83,8.787A1.419,1.419,0,0,1,15.371,22.553Z" transform="translate(0 -0.002)" fill="#eb742e"/>
</svg>
