<svg xmlns="http://www.w3.org/2000/svg" width="19" height="26" viewBox="0 0 19 26">
  <g id="Group_11" data-name="Group 11" transform="translate(0.5 0.5)">
    <path id="Fill_1" data-name="Fill 1" d="M9.981,7H1.258A1.215,1.215,0,0,1,0,5.837V.358A.375.375,0,0,1,.388,0,.375.375,0,0,1,.775.358v5.48a.466.466,0,0,0,.483.446H9.981a.359.359,0,1,1,0,.715Z" transform="translate(0 18)" stroke="#000" stroke-width="1"/>
    <path id="Fill_2" data-name="Fill 2" d="M.257.472H.217A.227.227,0,0,1,0,.236.227.227,0,0,1,.217,0H.257A.227.227,0,0,1,.474.236.226.226,0,0,1,.257.472Z" transform="translate(8.763 23.764)"/>
    <path id="Fill_3" data-name="Fill 3" d="M17.014,25H9.8a.3.3,0,1,1,0-.593h7.219a.374.374,0,0,0,.379-.369V3.939L12.821.593H.986A.374.374,0,0,0,.608.962V18.546a.3.3,0,0,1-.3.3.3.3,0,0,1-.3-.3V.962A.975.975,0,0,1,.986,0H12.923a.315.315,0,0,1,.183.059l4.774,3.495A.294.294,0,0,1,18,3.791V24.039a.974.974,0,0,1-.986.961Z" stroke="#000" stroke-width="1"/>
    <path id="Fill_4" data-name="Fill 4" d="M4.575,3.166H1.353C.607,3.166,0,2.723,0,2.18V.3C0,.136.187,0,.417,0S.833.136.833.3V2.18c0,.209.233.379.519.379H4.575c.23,0,.417.136.417.3S4.805,3.166,4.575,3.166Z" transform="translate(11.771 0.834)" stroke="#000" stroke-width="1"/>
    <path id="Fill_5" data-name="Fill 5" d="M.257.472H.217A.227.227,0,0,1,0,.236.227.227,0,0,1,.217,0H.257A.227.227,0,0,1,.474.236.227.227,0,0,1,.257.472Z" transform="translate(16.763 3.764)"/>
    <path id="Fill_6" data-name="Fill 6" d="M9.708.472H.292A.269.269,0,0,1,0,.236.269.269,0,0,1,.292,0H9.708A.269.269,0,0,1,10,.236.269.269,0,0,1,9.708.472Z" transform="translate(4 6.764)" stroke="#000" stroke-width="1"/>
    <path id="Fill_7" data-name="Fill 7" d="M9.708.472H.292A.269.269,0,0,1,0,.236.269.269,0,0,1,.292,0H9.708A.269.269,0,0,1,10,.236.269.269,0,0,1,9.708.472Z" transform="translate(4 8.764)" stroke="#000" stroke-width="1"/>
    <path id="Fill_8" data-name="Fill 8" d="M9.708.472H.292A.269.269,0,0,1,0,.236.269.269,0,0,1,.292,0H9.708A.269.269,0,0,1,10,.236.268.268,0,0,1,9.708.472Z" transform="translate(4 11.764)" stroke="#000" stroke-width="1"/>
    <path id="Fill_9" data-name="Fill 9" d="M3,5H.262a.264.264,0,0,1-.248-.195A.3.3,0,0,1,.1,4.486,2.9,2.9,0,0,0,.924,3.317,3.57,3.57,0,0,0,.941,2.18,3.61,3.61,0,0,1,1.029.622C1.4-.313,2.79.07,2.948.117L2.81.67c-.359-.105-1.149-.2-1.3.177a3.241,3.241,0,0,0-.048,1.282,3.933,3.933,0,0,1-.039,1.364,2.839,2.839,0,0,1-.511.935H3Z" transform="translate(7.263 15)" fill="#eb742e" stroke="#eb742e" stroke-width="1"/>
    <path id="Fill_10" data-name="Fill 10" d="M0,.472H3V0H0Z" transform="translate(7.263 17.264)" fill="#eb742e" stroke="#eb742e" stroke-width="1"/>
  </g>
</svg>
