<svg id="Group_11" data-name="Group 11" xmlns="http://www.w3.org/2000/svg" width="18" height="25" viewBox="0 0 18 25">
  <path id="Fill_1" data-name="Fill 1" d="M7.7,6H.971A.986.986,0,0,1,0,5V.307A.3.3,0,0,1,.3,0,.3.3,0,0,1,.6.307V5a.378.378,0,0,0,.373.383H7.7A.307.307,0,0,1,7.7,6Z" transform="translate(0 19)"/>
  <path id="Fill_2" data-name="Fill 2" d="M.257.472H.217A.227.227,0,0,1,0,.236.227.227,0,0,1,.217,0H.257A.227.227,0,0,1,.474.236.226.226,0,0,1,.257.472Z" transform="translate(8.763 23.764)"/>
  <path id="Fill_3" data-name="Fill 3" d="M17.014,25H9.8a.3.3,0,1,1,0-.593h7.219a.374.374,0,0,0,.379-.369V3.939L12.821.593H.986A.374.374,0,0,0,.608.962V18.546a.3.3,0,0,1-.3.3.3.3,0,0,1-.3-.3V.962A.975.975,0,0,1,.986,0H12.923a.315.315,0,0,1,.183.059l4.774,3.495A.294.294,0,0,1,18,3.791V24.039a.974.974,0,0,1-.986.961Z"/>
  <path id="Fill_4" data-name="Fill 4" d="M3.666,3H1.084A1.019,1.019,0,0,1,0,2.066V.288A.314.314,0,0,1,.334,0,.314.314,0,0,1,.668.288V2.066a.391.391,0,0,0,.416.359H3.666A.314.314,0,0,1,4,2.712.314.314,0,0,1,3.666,3Z" transform="translate(12 1)"/>
  <path id="Fill_5" data-name="Fill 5" d="M.257.472H.217A.227.227,0,0,1,0,.236.227.227,0,0,1,.217,0H.257A.227.227,0,0,1,.474.236.227.227,0,0,1,.257.472Z" transform="translate(16.763 3.764)"/>
  <path id="Fill_6" data-name="Fill 6" d="M9.708.472H.292A.269.269,0,0,1,0,.236.269.269,0,0,1,.292,0H9.708A.269.269,0,0,1,10,.236.269.269,0,0,1,9.708.472Z" transform="translate(4 6.764)"/>
  <path id="Fill_7" data-name="Fill 7" d="M9.708.472H.292A.269.269,0,0,1,0,.236.269.269,0,0,1,.292,0H9.708A.269.269,0,0,1,10,.236.269.269,0,0,1,9.708.472Z" transform="translate(4 8.764)"/>
  <path id="Fill_8" data-name="Fill 8" d="M9.708.472H.292A.269.269,0,0,1,0,.236.269.269,0,0,1,.292,0H9.708A.269.269,0,0,1,10,.236.268.268,0,0,1,9.708.472Z" transform="translate(4 11.764)"/>
  <path id="Fill_9" data-name="Fill 9" d="M3,5H.262a.264.264,0,0,1-.248-.195A.3.3,0,0,1,.1,4.486,2.9,2.9,0,0,0,.924,3.317,3.57,3.57,0,0,0,.941,2.18,3.61,3.61,0,0,1,1.029.622C1.4-.313,2.79.07,2.948.117L2.81.67c-.359-.105-1.149-.2-1.3.177a3.241,3.241,0,0,0-.048,1.282,3.933,3.933,0,0,1-.039,1.364,2.839,2.839,0,0,1-.511.935H3Z" transform="translate(8 13)" fill="#eb742e"/>
  <path id="Fill_10" data-name="Fill 10" d="M0,.472H3V0H0Z" transform="translate(8 15.764)" fill="#eb742e"/>
</svg>
