<svg id="Group_4" data-name="Group 4" xmlns="http://www.w3.org/2000/svg" width="16.888" height="21.946" viewBox="0 0 16.888 21.946">
  <path id="Shape" d="M16.03,21.946a.858.858,0,0,1-.857-.858A6.094,6.094,0,0,0,9.086,15H7.8a6.093,6.093,0,0,0-6.086,6.087.857.857,0,1,1-1.714,0,7.809,7.809,0,0,1,7.8-7.8H9.086a7.81,7.81,0,0,1,7.8,7.8A.859.859,0,0,1,16.03,21.946ZM8.358,11.573a5.787,5.787,0,1,1,5.786-5.786A5.793,5.793,0,0,1,8.358,11.573Zm0-9.859A4.072,4.072,0,1,0,12.43,5.787,4.077,4.077,0,0,0,8.358,1.715Z" transform="translate(0 0)"/>
  <path id="Shape-2" data-name="Shape" d="M4.329,5.829a.852.852,0,0,1-.43-.116L.427,3.7a.858.858,0,0,1-.3-1.189L1.412.41a.857.857,0,0,1,1.462.9L2.047,2.656,4.334,3.984,6.681,2.655,5.833,1.316A.857.857,0,1,1,7.282.4L8.611,2.5a.856.856,0,0,1-.3,1.2L4.751,5.718a.861.861,0,0,1-.422.111Z" transform="translate(4.072 16.116)" fill="#eb742e"/>
</svg>
