<svg width="72px" height="48px" viewBox="0 0 72 48" version="1.1" xmlns:xlink="http://www.w3.org/1999/xlink" xmlns="http://www.w3.org/2000/svg">
  <g id="Group-7">
    <path d="M71.5219 17.494C71.0218 16.5817 70.1943 15.9122 69.1867 15.6216L62.0121 13.5321C61.9385 13.0502 61.7105 12.5904 61.3428 12.2226L59.7798 10.6592C59.4231 10.3024 58.9598 10.0853 58.4817 10.0081L56.3819 2.81289C55.7788 0.741894 53.6128 -0.446255 51.5424 0.157001L50.1671 0.561642C49.1705 0.852242 48.3395 1.52171 47.8319 2.43403C47.5856 2.87546 47.4458 3.35735 47.3796 3.83557L45.3276 1.78294C44.0295 0.484422 41.9113 0.484422 40.6022 1.78294L38.7929 3.5928C37.6896 4.69638 37.5316 6.37007 38.2927 7.65023L24.9736 20.9735C23.6755 22.272 23.6755 24.3908 24.9736 25.7003L46.2882 47.0215C46.9391 47.6726 47.796 48 48.6528 48C49.5096 48 50.3664 47.6689 51.0173 47.0215L64.3365 33.6982C64.855 34.0072 65.4471 34.1691 66.0318 34.1691C66.8886 34.1691 67.7454 33.838 68.3963 33.1906L70.2056 31.3807C71.5037 30.0822 71.5037 27.9634 70.2056 26.6538L68.1536 24.6012C69.6614 24.4136 70.9889 23.3689 71.4376 21.8239L71.8421 20.4482C72.1326 19.4513 72.0223 18.3955 71.5111 17.4722L71.5219 17.494ZM57.202 12.4948L57.6984 11.9982C57.8014 11.8952 57.9338 11.8364 58.0735 11.8364C58.2133 11.8364 58.3457 11.8916 58.4486 11.9982L60.0005 13.5506C60.1034 13.6535 60.1623 13.786 60.1623 13.9258C60.1623 14.0656 60.1071 14.198 60.0005 14.301L59.504 14.7976C59.3054 15.0036 58.9487 15.0036 58.7502 14.7976L57.1762 13.2231C56.9703 13.0171 56.9703 12.6787 57.1762 12.469L57.202 12.4948ZM50.7077 2.37152L52.083 1.96688C52.2706 1.91171 52.4581 1.88228 52.6494 1.88228C53.5246 1.88228 54.3337 2.45613 54.5874 3.34267L56.6504 10.4348C56.5548 10.501 56.4628 10.5746 56.3672 10.6592L55.8597 11.1669C55.7274 11.2993 55.6244 11.4391 55.5288 11.5899L54.9441 11.005L53.4841 5.35479C53.3517 4.84715 52.8443 4.55287 52.3367 4.67794C51.8366 4.81037 51.5277 5.318 51.6601 5.82568L52.4618 8.9156L49.6853 6.13833L49.3176 4.87664C49.0087 3.80253 49.6191 2.68425 50.6929 2.37151L50.7077 2.37152ZM40.146 4.93183L41.9553 3.12197C42.2384 2.83872 42.6135 2.69893 42.9812 2.69893C43.3489 2.69893 43.7241 2.83872 44.0072 3.12197L53.094 12.2116L49.2254 16.0814L40.1496 6.99548C39.5832 6.42899 39.5832 5.50938 40.1496 4.93183L40.146 4.93183ZM26.326 24.3761C25.7597 23.8097 25.7597 22.879 26.326 22.3125L39.5614 9.07307L47.8944 17.4087L33.6225 31.6849L26.3266 24.3867L26.326 24.3761ZM34.9606 33.0134L54.4469 13.521L58.3156 17.3909L38.833 36.8794L34.9643 33.0096L34.9606 33.0134ZM49.7031 45.7075C49.1368 46.274 48.2065 46.274 47.6401 45.7075L40.1566 38.2217L54.4285 23.9455L62.9491 32.4687L49.7137 45.7081L49.7031 45.7075ZM68.8883 28.0139C69.4546 28.5803 69.4546 29.511 68.8883 30.0775L67.079 31.8874C66.5126 32.4539 65.5823 32.4539 65.0159 31.8874L55.7526 22.6212L59.6212 18.7513L68.8884 28.0213L68.8883 28.0139ZM70.0357 19.9542L69.6311 21.3299C69.3223 22.404 68.1897 23.0147 67.1268 22.7057L65.8655 22.3378L63.0891 19.5605L66.178 20.3624C66.2516 20.3808 66.3398 20.3919 66.4134 20.3919C66.8363 20.3919 67.2151 20.1086 67.3254 19.6856C67.4578 19.1853 67.1562 18.6703 66.6487 18.5378L61.0002 17.0775L60.4155 16.4926C60.5663 16.3969 60.7061 16.2939 60.8384 16.1615L61.3459 15.6539C61.4305 15.5693 61.5077 15.4736 61.5702 15.3817L68.6602 17.4453C69.734 17.7543 70.3445 18.8872 70.0356 19.9504L70.0357 19.9542Z" id="Fill-1" fill="#FF6905" fill-rule="evenodd" stroke="none" />
    <path d="M2.93642 7L30.0636 7C30.5793 7 31 6.55078 31 6C31 5.44922 30.5793 5 30.0636 5L2.93642 5C2.42066 5 2 5.44922 2 6C2 6.55078 2.42066 7 2.93642 7Z" id="Fill-2" fill="#000000" fill-rule="evenodd" stroke="none" />
    <path d="M32.1123 41L7.88771 41C7.39878 41 7 41.4492 7 42C7 42.5508 7.39878 43 7.88771 43L32.1123 43C32.6012 43 33 42.5508 33 42C33 41.4492 32.6012 41 32.1123 41Z" id="Fill-3" fill="#000000" fill-rule="evenodd" stroke="none" />
    <path d="M11.4991 31C10.6734 31 10 31.4492 10 32C10 32.5508 10.6734 33 11.4991 33L25.5009 33C26.3266 33 27 32.5508 27 32C27 31.4492 26.3266 31 25.5009 31L11.4991 31Z" id="Fill-4" fill="#000000" fill-rule="evenodd" stroke="none" />
    <path d="M25.9926 16C25.9926 15.4492 25.5787 15 25.0713 15L0.921365 15C0.413896 15 0 15.4492 0 16C0 16.5508 0.413896 17 0.921365 17L25.0786 17C25.5861 17 26 16.5508 26 16L25.9926 16Z" id="Fill-5" fill="#000000" fill-rule="evenodd" stroke="none" />
  </g>
</svg>