<svg xmlns="http://www.w3.org/2000/svg" width="22" height="22" viewBox="0 0 22 22">
  <g id="Group" transform="translate(0 0)">
    <path id="Shape" d="M9.11,22H5.155A5.161,5.161,0,0,1,0,16.845V5.155A5.161,5.161,0,0,1,5.155,0h7.908A5.161,5.161,0,0,1,18.22,5.155a.86.86,0,0,1-1.719,0,3.44,3.44,0,0,0-3.436-3.436H5.155A3.44,3.44,0,0,0,1.719,5.155v11.69a3.44,3.44,0,0,0,3.436,3.436H9.11A.859.859,0,0,1,9.11,22Zm1.418-4.812H6.316a.86.86,0,0,1,0-1.719h4.211a.86.86,0,0,1,0,1.719ZM16.8,15.038a3.652,3.652,0,1,1,3.652-3.651A3.656,3.656,0,0,1,16.8,15.038Zm0-5.585a1.934,1.934,0,1,0,1.933,1.934A1.936,1.936,0,0,0,16.8,9.453Zm-6.274,4.426H6.316a.859.859,0,1,1,0-1.718h4.211a.859.859,0,1,1,0,1.718Zm0-3.265H6.316a.859.859,0,1,1,0-1.719h4.211a.859.859,0,0,1,0,1.719Z"/>
    <path id="Shape-2" data-name="Shape" d="M15.683,16.415a.86.86,0,0,1-.859-.859,3.087,3.087,0,0,0-3.073-3.094h-.729a3.087,3.087,0,0,0-3.073,3.094.859.859,0,1,1-1.718,0,4.807,4.807,0,0,1,4.792-4.812h.729a4.807,4.807,0,0,1,4.792,4.812A.86.86,0,0,1,15.683,16.415ZM6.789,1.719H.86A.86.86,0,0,1,.86,0H6.789a.86.86,0,0,1,0,1.719Z" transform="translate(5.457 5.585)" fill="#eb742e"/>
  </g>
</svg>
