<svg xmlns="http://www.w3.org/2000/svg" width="22" height="22" viewBox="0 0 22 22">
  <g id="Group_6" data-name="Group 6" transform="translate(0 0)">
    <path id="Shape" d="M16.844,22H5.156A5.162,5.162,0,0,1,0,16.844V5.156A5.162,5.162,0,0,1,5.156,0H16.844A5.162,5.162,0,0,1,22,5.156V16.844A5.162,5.162,0,0,1,16.844,22ZM5.156,1.718A3.441,3.441,0,0,0,1.719,5.156V16.844a3.441,3.441,0,0,0,3.437,3.438H16.844a3.442,3.442,0,0,0,3.438-3.438V5.156a3.442,3.442,0,0,0-3.438-3.438ZM17.231,18.563H15.34a.859.859,0,1,1,0-1.719h1.891a.859.859,0,0,1,0,1.719Zm-1.16-3.352H8.895a.859.859,0,1,1,0-1.719H16.07a.859.859,0,1,1,0,1.719ZM8.207,5.2H4.6a.86.86,0,0,1,0-1.719H8.207a.86.86,0,0,1,0,1.719Z"/>
    <path id="Shape-2" data-name="Shape" d="M11.9,5.027H5.844a.859.859,0,1,1,0-1.718H11.9a.859.859,0,1,1,0,1.718ZM8.895,1.72H.86A.86.86,0,0,1,.86,0H8.895a.86.86,0,0,1,0,1.72Z" transform="translate(5.457 6.832)" fill="#eb742e"/>
  </g>
</svg>
