<svg xmlns="http://www.w3.org/2000/svg" width="22" height="22" viewBox="0 0 22 22">
  <g id="Timesheet_Icon" data-name="Timesheet Icon" transform="translate(0 0)">
    <path id="Shape" d="M11.66,17.36h-.4a.859.859,0,1,1,0-1.719h.4a8.484,8.484,0,0,0,6.109-2.614.859.859,0,0,1,1.243,1.187A10.21,10.21,0,0,1,11.66,17.36Zm-3.883,0H5.156A5.162,5.162,0,0,1,0,12.2V5.157A5.162,5.162,0,0,1,5.156,0H16.844A5.162,5.162,0,0,1,22,5.157V7.735a.859.859,0,1,1-1.718,0V5.157A3.441,3.441,0,0,0,16.844,1.72H5.156A3.441,3.441,0,0,0,1.719,5.157V12.2a3.441,3.441,0,0,0,3.437,3.438H7.777a.859.859,0,0,1,0,1.719ZM21.141,15.6a.86.86,0,0,1-.86-.859V12.469a.911.911,0,0,0-.91-.91H17.1a.86.86,0,0,1,0-1.72h2.27A2.632,2.632,0,0,1,22,12.469v2.269A.86.86,0,0,1,21.141,15.6ZM9.324,13.578A1.074,1.074,0,1,1,10.4,12.5,1.075,1.075,0,0,1,9.324,13.578Zm-3.7,0A1.074,1.074,0,1,1,6.7,12.5,1.075,1.075,0,0,1,5.629,13.578Zm7.391-3.694a1.075,1.075,0,1,1,1.075-1.075A1.075,1.075,0,0,1,13.019,9.884Zm-3.7,0A1.075,1.075,0,1,1,10.4,8.809,1.075,1.075,0,0,1,9.324,9.884Zm-3.7,0A1.075,1.075,0,1,1,6.7,8.809,1.075,1.075,0,0,1,5.629,9.884Zm7.391-3.7a1.074,1.074,0,1,1,1.075-1.075A1.075,1.075,0,0,1,13.019,6.188Zm-3.7,0A1.074,1.074,0,1,1,10.4,5.113,1.075,1.075,0,0,1,9.324,6.188Zm-3.7,0A1.074,1.074,0,1,1,6.7,5.113,1.075,1.075,0,0,1,5.629,6.188Z" transform="translate(0 4.64)"/>
    <path id="Shape-2" data-name="Shape" d="M13.191,10.828a1.074,1.074,0,1,1,1.075-1.075A1.075,1.075,0,0,1,13.191,10.828Zm.988-7.392a.86.86,0,0,1-.859-.859.859.859,0,1,0-1.718,0,.86.86,0,0,1-1.719,0,2.578,2.578,0,0,1,5.156,0A.86.86,0,0,1,14.18,3.436Zm-9.883,0a.86.86,0,0,1-.859-.859.859.859,0,1,0-1.719,0A.86.86,0,0,1,0,2.578a2.578,2.578,0,0,1,5.156,0A.86.86,0,0,1,4.3,3.436Z" transform="translate(3.523 0)" fill="#eb742e"/>
  </g>
</svg>
